<svg width="11" height="19" viewBox="0 0 11 19" fill="none" xmlns="http://www.w3.org/2000/svg">
<path d="M3.23438 12.3164V11.4492C3.23438 10.6992 3.39453 10.0469 3.71484 9.49219C4.03516 8.9375 4.62109 8.34766 5.47266 7.72266C6.29297 7.13672 6.83203 6.66016 7.08984 6.29297C7.35547 5.92578 7.48828 5.51562 7.48828 5.0625C7.48828 4.55469 7.30078 4.16797 6.92578 3.90234C6.55078 3.63672 6.02734 3.50391 5.35547 3.50391C4.18359 3.50391 2.84766 3.88672 1.34766 4.65234L0.0703125 2.08594C1.8125 1.10938 3.66016 0.621094 5.61328 0.621094C7.22266 0.621094 8.5 1.00781 9.44531 1.78125C10.3984 2.55469 10.875 3.58594 10.875 4.875C10.875 5.73438 10.6797 6.47656 10.2891 7.10156C9.89844 7.72656 9.15625 8.42969 8.0625 9.21094C7.3125 9.76562 6.83594 10.1875 6.63281 10.4766C6.4375 10.7656 6.33984 11.1445 6.33984 11.6133V12.3164H3.23438ZM2.85938 16.3242C2.85938 15.668 3.03516 15.1719 3.38672 14.8359C3.73828 14.5 4.25 14.332 4.92188 14.332C5.57031 14.332 6.07031 14.5039 6.42188 14.8477C6.78125 15.1914 6.96094 15.6836 6.96094 16.3242C6.96094 16.9414 6.78125 17.4297 6.42188 17.7891C6.0625 18.1406 5.5625 18.3164 4.92188 18.3164C4.26562 18.3164 3.75781 18.1445 3.39844 17.8008C3.03906 17.4492 2.85938 16.957 2.85938 16.3242Z" fill="black" fill-opacity="0.5"/>
</svg>
